<?xml version="1.0" standalone="no"?>
<!DOCTYPE svg PUBLIC "-//W3C//DTD SVG 20010904//EN"
 "http://www.w3.org/TR/2001/REC-SVG-20010904/DTD/svg10.dtd">
<svg version="1.0" xmlns="http://www.w3.org/2000/svg"
 width="450.000000pt" height="360.000000pt" viewBox="0 0 450.000000 360.000000"
 preserveAspectRatio="xMidYMid meet">

<g transform="translate(0.000000,360.000000) scale(0.100000,-0.100000)"
fill="#000000" stroke="none">
<path d="M1965 2920 c-494 -89 -865 -460 -950 -948 -8 -47 -15 -118 -15 -159
l0 -73 28 7 c37 10 77 6 110 -9 23 -11 47 -42 98 -125 9 -14 9 -3 2 42 -14 84
-3 265 21 357 83 320 328 566 657 660 115 33 343 33 462 0 164 -45 304 -125
419 -240 65 -65 148 -181 180 -252 22 -47 21 -47 38 -23 14 19 117 102 152
122 13 7 12 14 -7 52 -103 201 -330 410 -550 505 -147 64 -254 86 -435 90 -88
1 -182 -1 -210 -6z"/>
<path d="M3362 2239 c-106 -18 -232 -97 -291 -182 l-30 -45 -70 0 c-85 -1
-140 -16 -181 -51 l-32 -26 119 0 c107 -1 124 -3 188 -30 49 -20 87 -46 127
-85 47 -45 58 -52 58 -35 0 56 -76 161 -145 200 -16 10 -16 13 10 43 55 66
191 110 295 96 41 -5 54 -3 70 11 27 24 25 61 -5 90 -26 27 -32 27 -113 14z
m-433 -248 c9 -6 2 -10 -23 -13 -34 -4 -44 1 -29 15 9 10 35 8 52 -2z m68 -7
c-3 -3 -12 -4 -19 -1 -8 3 -5 6 6 6 11 1 17 -2 13 -5z m-130 -20 c2 -7 -12
-13 -37 -16 l-42 -4 23 19 c24 19 50 19 56 1z m170 10 c-3 -3 -12 -4 -19 -1
-8 3 -5 6 6 6 11 1 17 -2 13 -5z m-48 -8 c-9 -9 -109 -16 -109 -8 0 5 26 10
57 11 31 1 55 0 52 -3z m41 -16 c-8 -5 -28 -9 -45 -9 l-30 1 30 8 c17 4 37 8
45 9 13 1 13 0 0 -9z"/>
<path d="M2838 1963 c7 -3 16 -2 19 1 4 3 -2 6 -13 5 -11 0 -14 -3 -6 -6z"/>
<path d="M2768 1894 c-142 -34 -209 -94 -289 -259 -32 -66 -81 -151 -110 -189
-250 -328 -696 -381 -1020 -120 -83 66 -143 136 -206 239 -79 129 -122 111
-103 -43 25 -197 104 -347 266 -503 160 -153 351 -256 593 -317 97 -25 122
-27 296 -26 173 0 199 3 290 27 205 54 418 187 546 341 105 126 202 302 229
414 19 81 9 196 -22 257 -78 151 -276 226 -470 179z m356 -470 c36 -35 9 -94
-43 -94 -35 0 -51 17 -51 55 0 17 5 36 12 43 17 17 64 15 82 -4z m-83 -148
c14 -31 -4 -65 -81 -155 -146 -170 -398 -308 -640 -351 -114 -20 -292 -14
-400 14 -94 24 -176 54 -168 61 2 2 35 -6 73 -17 60 -18 97 -22 250 -22 160
-1 189 2 260 22 221 64 429 204 567 381 28 36 58 72 67 79 25 20 60 15 72 -12z"/>
</g>
</svg>
