<?xml version="1.0" standalone="no"?>
<!DOCTYPE svg PUBLIC "-//W3C//DTD SVG 1.0//EN" "http://www.w3.org/TR/2001/REC-SVG-20010904/DTD/svg10.dtd">
<svg xmlns="http://www.w3.org/2000/svg" xmlns:xlink="http://www.w3.org/1999/xlink" id="body_1" width="600" height="480">

<g transform="matrix(1.3333334 0 0 1.3333334 0 0)">
	<path  d="M0 0L450 0L450 360L0 360z" stroke="none"  fill="#FFFFFF" fill-rule="evenodd" />
	<g transform="matrix(0.75 0 0 0.75 0 0)">
		<g transform="matrix(1.3333334 0 0 1.3333334 0 0)">
			<g transform="matrix(0.1 0 -0 -0.1 0 360)">
				<path  d="M1965 2920C 1471 2831 1100 2460 1015 1972C 1007 1925 1000 1854 1000 1813L1000 1813L1000 1740L1028 1747C 1065 1757 1105 1753 1138 1738C 1161 1727 1185 1696 1236 1613C 1245 1599 1245 1610 1238 1655C 1224 1739 1235 1920 1259 2012C 1342 2332 1587 2578 1916 2672C 2031 2705 2259 2705 2378 2672C 2542 2627 2682 2547 2797 2432C 2862 2367 2945 2251 2977 2180C 2999 2133 2998 2133 3015 2157C 3029 2176 3132 2259 3167 2279C 3180 2286 3179 2293 3160 2331C 3057 2532 2830 2741 2610 2836C 2463 2900 2356 2922 2175 2926C 2087 2927 1993 2925 1965 2920z" stroke="none"  fill="#000000" fill-rule="nonzero" />
				<path  d="M3362 2239C 3256 2221 3130 2142 3071 2057L3071 2057L3041 2012L2971 2012C 2886 2011 2831 1996 2790 1961L2790 1961L2758 1935L2877 1935C 2984 1934 3001 1932 3065 1905C 3114 1885 3152 1859 3192 1820C 3239 1775 3250 1768 3250 1785C 3250 1841 3174 1946 3105 1985C 3089 1995 3089 1998 3115 2028C 3170 2094 3306 2138 3410 2124C 3451 2119 3464 2121 3480 2135C 3507 2159 3505 2196 3475 2225C 3449 2252 3443 2252 3362 2239zM2929 1991C 2938 1985 2931 1981 2906 1978C 2872 1974 2862 1979 2877 1993C 2886 2003 2912 2001 2929 1991zM2997 1984C 2994 1981 2985 1980 2978 1983C 2970 1986 2973 1989 2984 1989C 2995 1990 3001 1987 2997 1984zM2867 1964C 2869 1957 2855 1951 2830 1948L2830 1948L2788 1944L2811 1963C 2835 1982 2861 1982 2867 1964zM3037 1974C 3034 1971 3025 1970 3018 1973C 3010 1976 3013 1979 3024 1979C 3035 1980 3041 1977 3037 1974zM2989 1966C 2980 1957 2880 1950 2880 1958C 2880 1963 2906 1968 2937 1969C 2968 1970 2992 1969 2989 1966zM3030 1950C 3022 1945 3002 1941 2985 1941L2985 1941L2955 1942L2985 1950C 3002 1954 3022 1958 3030 1959C 3043 1960 3043 1959 3030 1950z" stroke="none"  fill="#000000" fill-rule="nonzero" />
				<path  d="M2838 1963C 2845 1960 2854 1961 2857 1964C 2861 1967 2855 1970 2844 1969C 2833 1969 2830 1966 2838 1963z" stroke="none"  fill="#000000" fill-rule="nonzero" />
				<path  d="M2768 1894C 2626 1860 2559 1800 2479 1635C 2447 1569 2398 1484 2369 1446C 2119 1118 1673 1065 1349 1326C 1266 1392 1206 1462 1143 1565C 1064 1694 1021 1676 1040 1522C 1065 1325 1144 1175 1306 1019C 1466 866 1657 763 1899 702C 1996 677 2021 675 2195 676C 2368 676 2394 679 2485 703C 2690 757 2903 890 3031 1044C 3136 1170 3233 1346 3260 1458C 3279 1539 3269 1654 3238 1715C 3160 1866 2962 1941 2768 1894zM3124 1424C 3160 1389 3133 1330 3081 1330C 3046 1330 3030 1347 3030 1385C 3030 1402 3035 1421 3042 1428C 3059 1445 3106 1443 3124 1424zM3041 1276C 3055 1245 3037 1211 2960 1121C 2814 951 2562 813 2320 770C 2206 750 2028 756 1920 784C 1826 808 1744 838 1752 845C 1754 847 1787 839 1825 828C 1885 810 1922 806 2075 806C 2235 805 2264 808 2335 828C 2556 892 2764 1032 2902 1209C 2930 1245 2960 1281 2969 1288C 2994 1308 3029 1303 3041 1276z" stroke="none"  fill="#000000" fill-rule="nonzero" />
			</g>
		</g>
	</g>
</g>
</svg>
